<svg xmlns="http://www.w3.org/2000/svg" viewBox="0 0 800 600">
  <defs>
    <linearGradient id="bg" x1="0" y1="0" x2="1" y2="1">
      <stop offset="0%" stop-color="#ede7f6"/>
      <stop offset="100%" stop-color="#d1c4e9"/>
    </linearGradient>
    <linearGradient id="chalk" x1="0" y1="0" x2="1" y2="0">
      <stop offset="0%" stop-color="#fffde7"/>
      <stop offset="100%" stop-color="#ffe082"/>
    </linearGradient>
  </defs>
  <rect width="800" height="600" rx="40" fill="url(#bg)"/>
  <rect x="80" y="420" width="640" height="140" rx="30" fill="#3e2723"/>
  <rect x="110" y="110" width="580" height="260" rx="24" fill="#1e88e5"/>
  <rect x="140" y="150" width="520" height="140" rx="16" fill="#ffffff"/>
  <rect x="170" y="190" width="460" height="16" rx="8" fill="#1e88e5"/>
  <rect x="170" y="225" width="400" height="16" rx="8" fill="#1e88e5"/>
  <rect x="170" y="260" width="330" height="16" rx="8" fill="#1e88e5"/>
  <circle cx="250" cy="250" r="50" fill="#ffcc80"/>
  <path d="M230 230 C230 205 270 205 270 230 S250 280 230 230" fill="#6d4c41"/>
  <path d="M220 280 C220 320 280 320 280 280" fill="#6d4c41"/>
  <path d="M200 360 C200 320 280 320 280 360" fill="#ffcc80"/>
  <path d="M190 460 C190 380 290 380 290 460" fill="#673ab7"/>
  <path d="M310 380 C310 340 390 340 390 380 S330 440 310 380" fill="#ffcc80"/>
  <path d="M300 460 C300 390 400 390 400 460" fill="#5e35b1"/>
  <path d="M120 200 L190 160 L250 200" stroke="#3e2723" stroke-width="14" fill="none" stroke-linecap="round"/>
  <path d="M540 160 C510 110 430 120 400 170" stroke="#fff9c4" stroke-width="18" fill="none" stroke-linecap="round"/>
  <path d="M390 410 L520 410" stroke="#fffde7" stroke-width="22" stroke-linecap="round"/>
  <text x="150" y="505" font-family="Poppins, sans-serif" font-size="56" fill="#fff" font-weight="700">PROF</text>
  <text x="150" y="565" font-family="Poppins, sans-serif" font-size="32" fill="#fff">Teaching leader</text>
</svg>
